# xmcd
#
# Track frame offsets: 
#        150
#        14110
#        32486
#        55361
#        68611
#        84513
#        100308
#        117193
#        137434
#        156159
#        190272
#
# Disc length: 3120 seconds
#
# Revision: 1
# Processed by: cddbd v1.5.2PL0 Copyright (c) Steve Scherf et al.
# Submitted via: ExactAudioCopy v0.95b4
#
DISCID=8d0c2e0b
DTITLE=Olivia - A Girl Meets Bossanova
DYEAR=2005
DGENRE=Jazz
TTITLE0=Fly Me To The Moon <B. Howard>
TTITLE1=Meditation <A. C. Jobim>
TTITLE2=Feelin' So Good
TTITLE3=Where Is The Love <R. MacDonald>
TTITLE4=My Favorite Things <O. Hammerstein, R. Rodgers>
TTITLE5=Love Fool <N. Persson>
TTITLE6=The Girl From Ipanema <A. C. Jobim>
TTITLE7=Quiet Nights And Quiet Stars <A. C. Jobim>
TTITLE8=Meditation (Inst.) <A. C. Jobim>
TTITLE9=Feelin' So Good (Inst.)
TTITLE10=My favorite things (M/V)
EXTD=YEAR: 2005
EXTT0=
EXTT1=
EXTT2=
EXTT3=
EXTT4=
EXTT5=
EXTT6=
EXTT7=
EXTT8=
EXTT9=
EXTT10=
PLAYORDER=
